<?xml version="1.0" encoding="utf-8"?>
<!-- Generator: Adobe Illustrator 24.0.1, SVG Export Plug-In . SVG Version: 6.00 Build 0)  -->
<!DOCTYPE svg PUBLIC "-//W3C//DTD SVG 1.1//EN" "http://www.w3.org/Graphics/SVG/1.1/DTD/svg11.dtd" [
	<!ENTITY ns_extend "http://ns.adobe.com/Extensibility/1.0/">
	<!ENTITY ns_ai "http://ns.adobe.com/AdobeIllustrator/10.0/">
	<!ENTITY ns_graphs "http://ns.adobe.com/Graphs/1.0/">
	<!ENTITY ns_vars "http://ns.adobe.com/Variables/1.0/">
	<!ENTITY ns_imrep "http://ns.adobe.com/ImageReplacement/1.0/">
	<!ENTITY ns_sfw "http://ns.adobe.com/SaveForWeb/1.0/">
	<!ENTITY ns_custom "http://ns.adobe.com/GenericCustomNamespace/1.0/">
	<!ENTITY ns_adobe_xpath "http://ns.adobe.com/XPath/1.0/">
]>
<svg version="1.1" id="圖層_1" xmlns:x="&ns_extend;" xmlns:i="&ns_ai;" xmlns:graph="&ns_graphs;"
	 xmlns="http://www.w3.org/2000/svg" xmlns:xlink="http://www.w3.org/1999/xlink" x="0px" y="0px" width="275.5px" height="60px"
	 viewBox="0 0 275.5 60" style="enable-background:new 0 0 275.5 60;" xml:space="preserve">
<style type="text/css">
	.st0{fill:#003477;}
</style>
<metadata>
	<sfw  xmlns="&ns_sfw;">
		<slices></slices>
		<sliceSourceBounds  bottomLeftOrigin="true" height="52" width="274.1" x="0.7" y="3.3"></sliceSourceBounds>
	</sfw>
</metadata>
<g>
	<g>
		<path class="st0" d="M8.9,40h10.2c5.7-4.9,12-10.3,12-10.3L11.5,12.8H1.3l19.6,16.9L8.9,40z"/>
		<polygon class="st0" points="21.8,4.7 14.7,4.7 14.7,12.8 14.7,12.8 21,18.2 30.3,18.2 36.6,12.8 21.8,12.8 		"/>
		<polygon class="st0" points="36.3,47.1 30,41.7 21.4,41.7 15.6,41.7 7,41.7 0.7,47.1 14.7,47.1 14.7,55.2 21.8,55.2 21.8,47.1 		
			"/>
	</g>
	<g>
		<path d="M44.4,5.4h13.1v3.2h-9.2v3.7h8.5v3h-8.5v4.3h9.4v3.2H44.4V5.4z"/>
		<path d="M59.2,10.2h3.3v1.7l0,0c0.9-1.3,2.2-2.1,3.9-2.1c1.6,0,3,0.6,3.7,2.1c0.7-1.1,2.1-2.1,3.8-2.1c2.7,0,4.6,1.2,4.6,4.5v8.5
			H75v-7.2c0-1.7-0.1-3.1-2.1-3.1s-2.3,1.6-2.3,3.2v7h-3.5v-7.1c0-1.5,0.1-3.2-2.1-3.2c-0.7,0-2.3,0.4-2.3,2.9v7.3h-3.5V10.2z"/>
		<path d="M83.3,17.4c0.1,2.2,1.2,3.2,3.1,3.2c1.4,0,2.5-0.9,2.7-1.6h3.1c-1,3-3.1,4.3-5.9,4.3c-4,0-6.5-2.7-6.5-6.7
			c0-3.8,2.6-6.7,6.5-6.7c4.3,0,6.4,3.6,6.1,7.5C92.4,17.4,83.3,17.4,83.3,17.4z M88.9,15.2c-0.3-1.8-1.1-2.7-2.8-2.7
			c-2.2,0-2.8,1.7-2.9,2.7H88.9z"/>
		<path d="M93.6,10.2h3.3v2.3l0,0c0.6-1.6,2.3-2.7,4-2.7c0.2,0,0.5,0,0.8,0.1v3.2c-0.3-0.1-0.8-0.1-1.2-0.1c-2.5,0-3.4,1.8-3.4,4.1
			v5.7h-3.5C93.6,22.8,93.6,10.2,93.6,10.2z"/>
		<path d="M114.4,22c0,2.1-0.7,5.6-6.6,5.6c-2.5,0-5.4-1.2-5.6-4.1h3.5c0.3,1.3,1.4,1.7,2.6,1.7c1.9,0,2.8-1.3,2.8-3.1v-1.7l0,0
			c-0.8,1.3-2.3,2-3.8,2c-3.8,0-5.4-2.9-5.4-6.4c0-3.3,1.9-6.3,5.4-6.3c1.7,0,2.9,0.6,3.8,2l0,0V10h3.3C114.4,10,114.4,22,114.4,22z
			 M111.1,16.4c0-2.1-0.7-3.9-3-3.9c-2,0-2.8,1.7-2.8,3.6c0,1.8,0.7,3.8,2.8,3.8C110.2,19.9,111.1,18.2,111.1,16.4z"/>
		<path d="M119.9,8.2h-3.5V5.4h3.5V8.2z M116.5,10.2h3.5v12.7h-3.5V10.2z"/>
		<path d="M121.8,10.2h3.3V12h0.1c0.9-1.4,2.4-2.1,3.9-2.1c3.7,0,4.6,2.1,4.6,5.2v7.8h-3.5v-7.1c0-2.1-0.6-3.1-2.2-3.1
			c-1.9,0-2.7,1.1-2.7,3.6v6.6h-3.5L121.8,10.2L121.8,10.2z"/>
		<path d="M147.7,22c0,2.1-0.7,5.6-6.6,5.6c-2.5,0-5.4-1.2-5.6-4.1h3.5c0.3,1.3,1.4,1.7,2.6,1.7c1.9,0,2.8-1.3,2.8-3.1v-1.7l0,0
			c-0.8,1.3-2.3,2-3.8,2c-3.8,0-5.4-2.9-5.4-6.4c0-3.3,1.9-6.3,5.4-6.3c1.7,0,2.9,0.6,3.8,2l0,0V10h3.3V22z M144.4,16.4
			c0-2.1-0.7-3.9-3-3.9c-2,0-2.8,1.7-2.8,3.6c0,1.8,0.7,3.8,2.8,3.8C143.4,19.9,144.4,18.2,144.4,16.4z"/>
		<path d="M155.9,5.4h7.5c4.5,0,7.9,2.8,7.9,8.6c0,5.1-2.6,8.8-7.9,8.8h-7.5V5.4z M159.7,19.6h3.4c2.2,0,4.4-1.4,4.4-5.2
			c0-3.5-1.2-5.8-5-5.8h-2.7L159.7,19.6L159.7,19.6z"/>
		<path d="M175.7,17.4c0.1,2.2,1.2,3.2,3.1,3.2c1.4,0,2.5-0.9,2.7-1.6h3.1c-1,3-3.1,4.3-5.9,4.3c-4,0-6.5-2.7-6.5-6.7
			c0-3.8,2.6-6.7,6.5-6.7c4.3,0,6.4,3.6,6.1,7.5C184.8,17.4,175.7,17.4,175.7,17.4z M181.3,15.2c-0.3-1.8-1.1-2.7-2.8-2.7
			c-2.2,0-2.8,1.7-2.9,2.7H181.3z"/>
		<path d="M193,22.8h-3.9l-4.3-12.7h3.6l2.7,8.6l0,0l2.7-8.6h3.5L193,22.8z"/>
		<path d="M201.5,8.2H198V5.4h3.5V8.2z M198,10.2h3.5v12.7H198V10.2z"/>
		<path d="M212,14.6c-0.2-1.4-1.1-2.2-2.6-2.2c-2.2,0-3,2.3-3,4.1s0.7,4,2.9,4c1.6,0,2.5-1,2.8-2.6h3.4c-0.4,3.4-2.8,5.2-6.1,5.2
			c-3.8,0-6.4-2.7-6.4-6.5c0-3.9,2.3-6.9,6.5-6.9c3,0,5.7,1.6,5.9,4.8H212V14.6z"/>
		<path d="M219.4,17.4c0.1,2.2,1.2,3.2,3.1,3.2c1.4,0,2.5-0.9,2.7-1.6h3.1c-1,3-3.1,4.3-5.9,4.3c-4,0-6.5-2.7-6.5-6.7
			c0-3.8,2.6-6.7,6.5-6.7c4.3,0,6.4,3.6,6.1,7.5C228.5,17.4,219.4,17.4,219.4,17.4z M225.1,15.2c-0.3-1.8-1.1-2.7-2.8-2.7
			c-2.2,0-2.8,1.7-2.9,2.7H225.1z"/>
		<path d="M235.5,14.1c0.2-3.3,3.1-4.2,5.9-4.2c2.5,0,5.6,0.6,5.6,3.6V20c0,1.2,0.1,2.3,0.4,2.8H244c-0.1-0.4-0.2-0.8-0.2-1.2
			c-1.1,1.2-2.7,1.6-4.3,1.6c-2.4,0-4.3-1.2-4.3-3.8c0-2.9,2.2-3.5,4.3-3.8s4.1-0.2,4.1-1.7s-1-1.7-2.3-1.7s-2.2,0.5-2.3,1.9
			C239,14.1,235.5,14.1,235.5,14.1z M243.6,16.7c-0.6,0.5-1.8,0.5-2.9,0.7c-1.1,0.2-2.1,0.6-2.1,1.9s1,1.6,2.1,1.6
			c2.7,0,2.8-2.2,2.8-2.9L243.6,16.7L243.6,16.7z"/>
		<path d="M248.9,10.2h3.3V12h0.1c0.9-1.4,2.4-2.1,3.9-2.1c3.7,0,4.6,2.1,4.6,5.2v7.8h-3.5v-7.1c0-2.1-0.6-3.1-2.2-3.1
			c-1.9,0-2.7,1.1-2.7,3.6v6.6h-3.5L248.9,10.2L248.9,10.2z"/>
		<path d="M271.6,21.2L271.6,21.2c-0.9,1.4-2.3,2-3.9,2c-3.8,0-5.7-3.3-5.7-6.8c0-3.4,1.9-6.6,5.6-6.6c1.5,0,3,0.6,3.7,1.9l0,0V5.4
			h3.5v17.5h-3.3L271.6,21.2L271.6,21.2z M268.5,12.5c-2.3,0-3.1,2-3.1,4s0.9,4.1,3.1,4.1c2.3,0,3-2,3-4.1S270.8,12.5,268.5,12.5z"
			/>
		<path d="M47.1,46.4c0,2.3,1.8,3.2,3.9,3.2c1.3,0,3.4-0.4,3.4-2.2c0-1.9-2.6-2.2-5.2-2.9c-2.6-0.7-5.2-1.7-5.2-5
			c0-3.6,3.4-5.3,6.5-5.3c3.6,0,7,1.6,7,5.6h-3.7c-0.1-2.1-1.6-2.6-3.5-2.6c-1.2,0-2.6,0.5-2.6,2c0,1.3,0.8,1.5,5.2,2.6
			c1.3,0.3,5.2,1.1,5.2,5.1c0,3.2-2.5,5.6-7.3,5.6c-3.9,0-7.5-1.9-7.4-6.2h3.7V46.4z"/>
		<path d="M65.4,53.8c-0.8,2-2,2.9-4.4,2.9c-0.7,0-1.4,0-2.1-0.1v-2.9c0.7,0,1.3,0.1,2,0.1c1.2-0.1,1.6-1.4,1.2-2.4l-4.5-11.9h3.7
			l2.9,8.7l0,0l2.8-8.7h3.6L65.4,53.8z"/>
		<path d="M73.7,48.1c0,1.5,1.3,2.1,2.7,2.1c1,0,2.3-0.4,2.3-1.6c0-1.1-1.4-1.4-3.9-2c-2-0.4-4-1.2-4-3.4c0-3.2,2.8-4.1,5.5-4.1
			c2.8,0,5.3,0.9,5.6,4h-3.3c-0.1-1.3-1.1-1.7-2.4-1.7c-0.8,0-1.9,0.1-1.9,1.2c0,1.2,2,1.4,3.9,1.9c2,0.5,4,1.2,4,3.5
			c0,3.3-2.9,4.4-5.8,4.4s-5.8-1.1-5.9-4.5h3.2V48.1z"/>
		<path d="M87.7,39.6h2.5v2.3h-2.5v6.3c0,1.2,0.3,1.5,1.5,1.5c0.4,0,0.7,0,1.1-0.1v2.7c-0.6,0.1-1.3,0.1-2,0.1c-2.1,0-4-0.5-4-3
			v-7.5h-2.1v-2.3h2.1v-3.8h3.5L87.7,39.6L87.7,39.6z"/>
		<path d="M93.9,46.7c0.1,2.2,1.2,3.2,3.1,3.2c1.4,0,2.5-0.9,2.7-1.6h3.1c-1,3-3.1,4.3-5.9,4.3c-4,0-6.5-2.7-6.5-6.7
			c0-3.8,2.6-6.7,6.5-6.7c4.3,0,6.4,3.6,6.1,7.5H93.9z M99.5,44.5c-0.3-1.8-1.1-2.7-2.8-2.7c-2.2,0-2.8,1.7-2.9,2.7H99.5z"/>
		<path d="M104.3,39.6h3.3v1.7l0,0c0.9-1.3,2.2-2.1,3.9-2.1c1.6,0,3,0.6,3.7,2.1c0.7-1.1,2.1-2.1,3.8-2.1c2.7,0,4.6,1.2,4.6,4.5v8.5
			h-3.5V45c0-1.7-0.1-3.1-2.1-3.1s-2.3,1.6-2.3,3.2v7h-3.5V45c0-1.5,0.1-3.2-2.1-3.2c-0.7,0-2.3,0.4-2.3,2.9V52h-3.5V39.6z"/>
		<path d="M144.5,50.2c-1.3,1.7-3.1,2.4-4.8,2.4c-5.4,0-8.6-4-8.6-9.1c0-5.2,3.2-9.2,8.6-9.2c3.6,0,7,2.2,7.4,6.2h-3.7
			c-0.4-1.9-1.9-2.9-3.7-2.9c-3.5,0-4.7,2.9-4.7,6c0,2.9,1.3,5.9,4.7,5.9c2.5,0,3.9-1.3,4.2-3.8H140v-2.9h7.3v9.4h-2.4L144.5,50.2z"
			/>
		<path d="M149.2,39.6h3.3v2.3l0,0c0.6-1.6,2.3-2.7,4-2.7c0.2,0,0.5,0,0.8,0.1v3.2c-0.3-0.1-0.8-0.1-1.2-0.1c-2.5,0-3.4,1.8-3.4,4.1
			v5.7h-3.5L149.2,39.6L149.2,39.6z"/>
		<path d="M163.6,39.2c4,0,6.6,2.6,6.6,6.7c0,4-2.6,6.7-6.6,6.7s-6.5-2.6-6.5-6.7C157,41.9,159.6,39.2,163.6,39.2z M163.6,49.9
			c2.4,0,3.1-2,3.1-4s-0.7-4.1-3.1-4.1c-2.3,0-3.1,2-3.1,4.1C160.5,47.9,161.2,49.9,163.6,49.9z"/>
		<path d="M183.4,52.2h-3.3v-1.8H180c-0.9,1.4-2.4,2.1-3.9,2.1c-3.7,0-4.6-2.1-4.6-5.2v-7.8h3.5v7.1c0,2.1,0.6,3.1,2.2,3.1
			c1.9,0,2.7-1.1,2.7-3.6v-6.6h3.5V52.2z"/>
		<path d="M185.2,39.6h3.3v1.6l0,0c0.8-1.3,2.2-2,3.8-2c4,0,5.8,3.2,5.8,6.8c0,3.4-1.9,6.5-5.6,6.5c-1.5,0-3-0.7-3.8-1.9l0,0v6h-3.5
			V39.6z M194.6,45.9c0-2-0.8-4.1-3-4.1c-2.3,0-3,2-3,4.1s0.8,4,3,4S194.6,48,194.6,45.9z"/>
	</g>
</g>
</svg>
